#!OML:ASF F:\VICON\USERDATA\INSTALL\Justin_Nancy\Justin_Nancy.ASF
:FULLY-SPECIFIED
:DEGREES
472
root -18.9844 17.3216 13.0537 272.805 -86.5439 -273.556
lowerback 7.05583 -0.39176 -4.27782
upperback -0.324904 -0.815827 1.70684
thorax -4.21651 -0.295326 4.27251
lowerneck -15.3773 -3.80227 -7.53503
upperneck 25.2618 -4.4643 2.51995
head 10.9323 -2.60968 1.52742
rclavicle 3.55328e-015 4.77083e-015
rhumerus -37.3464 -18.8161 -74.6442
rradius 29.354
rwrist 10.8241
rhand -13.5323 12.6525
rfingers 7.12502
rthumb 12.58 -16.9488
lclavicle 3.55328e-015 4.77083e-015
lhumerus -28.2999 9.60108 85.9301
lradius 23.678
lwrist -10.215
lhand -13.776 24.7944
lfingers 7.12502
lthumb 12.3451 54.41
rfemur -27.8189 -3.64639 17.1701
rtibia 65.3195
rfoot -6.78141 -4.44983
rtoes 10.5854
lfemur -7.15502 -2.10427 -28.7492
ltibia 27.889
lfoot -15.1497 1.697
ltoes 3.37766
473
root -19.1076 17.3152 13.0616 276.464 -86.6066 -277.31
lowerback 7.30467 -0.447802 -4.13302
upperback -0.323439 -0.891468 1.63104
thorax -4.35025 -0.333452 4.12366
lowerneck -15.6684 -3.75864 -6.93098
upperneck 25.4001 -4.48584 2.30362
head 11.0186 -2.58596 1.34042
rclavicle 2.98177e-016 1.90833e-014
rhumerus -37.7918 -18.1893 -75.0915
rradius 29.858
rwrist 9.49711
rhand -13.685 12.1183
rfingers 7.12502
rthumb 12.4329 -17.492
lclavicle 2.98177e-016 1.90833e-014
lhumerus -28.0171 8.73557 85.8153
lradius 23.8775
lwrist -9.96263
lhand -13.1595 24.4396
lfingers 7.12502
lthumb 12.9394 54.0185
rfemur -28.1721 -3.57713 17.2508
rtibia 63.7166
rfoot -7.47379 -4.48303
rtoes 13.3715
lfemur -6.653 -2.40301 -28.6378
ltibia 28.1282
lfoot -15.7392 2.09259
ltoes 5.28125
474
root -19.2347 17.3014 13.0371 272.207 -86.4274 -273
lowerback 7.22653 -0.360524 -4.86949
upperback -0.279528 -0.833131 1.66307
thorax -4.25717 -0.291029 4.56703
lowerneck -15.7055 -3.74759 -6.56179
upperneck 25.1941 -4.52003 2.18073
head 10.9364 -2.57477 1.22978
rclavicle -8.57259e-015 2.14687e-014
rhumerus -37.9583 -18.1852 -75.201
rradius 29.9702
rwrist 9.13678
rhand -13.7624 12.0728
rfingers 7.12502
rthumb 12.3582 -17.542
lclavicle -8.57259e-015 2.14687e-014
lhumerus -27.6517 8.40961 85.581
lradius 24.0479
lwrist -9.8632
lhand -12.908 24.3969
lfingers 7.12502
lthumb 13.1818 53.9602
rfemur -28.742 -3.07277 17.3773
rtibia 62.0363
rfoot -8.05982 -4.98685
rtoes 7.61719
lfemur -6.2165 -1.41008 -28.6733
ltibia 28.1631
lfoot -16.4643 1.76728
ltoes 5.58592
475
root -19.3596 17.2848 13.0422 279.978 -85.9882 -280.472
lowerback 7.03798 -0.554344 -5.42753
upperback -0.389726 -1.12452 1.799
thorax -4.22093 -0.419969 5.05489
lowerneck -15.261 -3.83481 -7.30909
upperneck 24.8069 -4.56021 2.54458
head 10.7394 -2.61805 1.48802
rclavicle 2.13694e-015 2.38542e-015
rhumerus -38.0854 -18.0883 -74.7624
rradius 29.9078
rwrist 9.25539
rhand -13.7944 12.2378
rfingers 7.12502
rthumb 12.3274 -17.3788
lclavicle 2.13694e-015 2.38542e-015
lhumerus -27.3468 9.27653 85.6228
lradius 24.1419
lwrist -10.6038
lhand -11.6217 23.0828
lfingers 7.12502
lthumb 14.4215 52.5617
rfemur -29.5625 -3.57704 17.1739
rtibia 60.2961
rfoot -8.42954 -5.62553
rtoes 2.57075
lfemur -5.96489 -1.45255 -29.125
ltibia 27.8745
lfoot -16.6852 1.58122
ltoes 4.45693
476
root -19.4899 17.2735 13.043 280.738 -85.462 -281.126
lowerback 6.99958 -0.533892 -6.03481
upperback -0.437422 -1.14528 1.82303
thorax -4.23626 -0.414215 5.42811
lowerneck -15.0713 -3.91961 -7.59696
upperneck 24.8034 -4.57992 2.37653
head 10.7083 -2.67774 1.47521
rclavicle -1.02126e-014 4.77083e-015
rhumerus -38.3795 -17.9304 -74.4819
rradius 30.0233
rwrist 9.17417
rhand -14.0736 12.0367
rfingers 7.12502
rthumb 12.0581 -17.5959
lclavicle -1.02126e-014 4.77083e-015
lhumerus -27.0485 9.27287 86.2162
lradius 24.3336
lwrist -10.4309
lhand -10.0209 21.6375
lfingers 7.12502
lthumb 15.9635 50.9996
rfemur -30.0895 -3.40912 16.6783
rtibia 58.4629
rfoot -8.92784 -6.11327
rtoes 2.15509
lfemur -5.32648 -1.66828 -29.718
ltibia 27.4069
lfoot -16.7863 1.49348
ltoes 5.57311
477
root -19.6162 17.2761 13.0422 280.571 -84.928 -280.843
lowerback 6.85467 -0.788207 -6.86069
upperback -0.282109 -1.54101 1.81861
thorax -3.91797 -0.610283 5.92555
lowerneck -15.4928 -3.69941 -7.34301
upperneck 24.674 -4.22059 2.1586
head 10.7101 -2.50487 1.39992
rclavicle -1.49089e-015 -2.62396e-014
rhumerus -37.9971 -17.5752 -74.8274
rradius 29.9824
rwrist 9.3054
rhand -14.129 11.8269
rfingers 7.12502
rthumb 12.0047 -17.8088
lclavicle -1.49089e-015 -2.62396e-014
lhumerus -26.5916 8.9132 86.3711
lradius 24.8037
lwrist -9.10672
lhand -9.86132 22.2941
lfingers 7.12502
lthumb 16.1172 51.6439
rfemur -30.3105 -2.47796 15.7039
rtibia 56.3937
rfoot -10.2299 -5.57784
rtoes 13.3664
lfemur -4.77713 -1.40763 -30.2713
ltibia 27.0741
lfoot -16.9497 1.11649
ltoes 7.05567
